<svg width="56" height="56" viewBox="0 0 56 56" fill="none" xmlns="http://www.w3.org/2000/svg" aria-hidden="true">
  <defs>
    <linearGradient id="sineGlow" x1="10" y1="46" x2="46" y2="10" gradientUnits="userSpaceOnUse">
      <stop stop-color="#C026D3"/>
      <stop offset="0.55" stop-color="#A855F7"/>
      <stop offset="1" stop-color="#7C3AED"/>
    </linearGradient>
    <linearGradient id="sineCore" x1="14" y1="41" x2="42" y2="15" gradientUnits="userSpaceOnUse">
      <stop stop-color="#F0ABFC"/>
      <stop offset="1" stop-color="#E9D5FF"/>
    </linearGradient>
    <linearGradient id="arrowCore" x1="17" y1="37" x2="42" y2="22" gradientUnits="userSpaceOnUse">
      <stop stop-color="#F0ABFC"/>
      <stop offset="1" stop-color="#E9D5FF"/>
    </linearGradient>
  </defs>
  <path d="M11.5 28C14.2 20.9 17 17.4 20.2 17.4C23.7 17.4 26.2 21.2 28 28C29.8 34.8 32.3 38.6 35.8 38.6C39 38.6 41.8 35.1 44.5 28" stroke="url(#sineGlow)" stroke-width="4.8" stroke-linecap="round" stroke-linejoin="round"/>
  <path d="M13 28C15.3 22.3 17.8 19.6 20.2 19.6C22.8 19.6 25 22.5 26.7 28C28.6 34.3 30.8 36.4 33.9 36.4C36.8 36.4 39.2 33.7 42.2 28" stroke="url(#sineCore)" stroke-width="2.4" stroke-linecap="round" stroke-linejoin="round" opacity="0.95"/>
  <path d="M17 37L39.2 24.2" stroke="url(#sineGlow)" stroke-width="3.8" stroke-linecap="round" stroke-linejoin="round"/>
  <path d="M17.8 36.2L39.1 23.9" stroke="url(#arrowCore)" stroke-width="1.9" stroke-linecap="round" stroke-linejoin="round" opacity="0.96"/>
  <path d="M38.6 18.6L46 20.6L40.6 26.1Z" fill="url(#sineGlow)"/>
  <path d="M39.7 20.1L44.2 21.3L40.9 24.6Z" fill="url(#sineCore)" opacity="0.95"/>
</svg>
