<svg xmlns="http://www.w3.org/2000/svg" viewBox="0 0 64 64" fill="none">
  <defs>
    <linearGradient id="bg" x1="8" y1="6" x2="56" y2="58" gradientUnits="userSpaceOnUse">
      <stop stop-color="#8B5CF6" />
      <stop offset="1" stop-color="#6D28D9" />
    </linearGradient>
  </defs>
  <rect width="64" height="64" rx="16" fill="url(#bg)" />
  <path
    d="M16 20h9.2v20.2c0 6.5-3.7 10.3-10.1 10.8l-1.9-7.1c2.4-.1 2.8-1.8 2.8-4.1V20Zm18.4 2.2c2.1-1.7 5.2-2.7 8.8-2.7 4.7 0 8.1 2 10.4 5.5l-6.2 3.8c-1-1.4-2.2-2.4-4.3-2.4-2 0-3.2.8-3.2 2.2 0 1.6 1.3 2.2 4.2 3.5l1.6.7c4.6 2 7.7 4.6 7.7 10 0 5.8-4.6 9-10.7 9-5.8 0-9.6-2.8-11.5-6.4l6.5-3.7c1.2 2.1 2.6 3.6 5.1 3.6 2.1 0 3.4-1 3.4-2.6 0-1.9-1.4-2.5-3.9-3.6l-1.6-.7c-4.3-1.8-7.8-4.2-7.8-9.7 0-2.9 1.2-5.3 3.5-7.1Z"
    fill="#F3E8FF"
  />
</svg>
